PathFileType	4	(X/Y/Z)	S1_nor_slow_left.trc
DataRate	CameraRate	NumFrames	NumMarkers	Units	OrigDataRate	OrigDataStartFrame	OrigNumFrames
250.00	250.00	8	18	mm	250.00	3081	12323
Frame#	Time	c7	r_should	l_should	clavicle	r_upa	r_elb_l	r_elb_m	r_low	r_wri_l	r_wri_m	r_met	l_upa	l_elb_l	l_elb_m	l_low	l_wri_l	l_wri_m	l_met
	X1	Y1	Z1	X2	Y2	Z2	X3	Y3	Z3	X4	Y4	Z4	X5	Y5	Z5	X6	Y6	Z6	X7	Y7	Z7	X8	Y8	Z8	X9	Y9	Z9	X10	Y10	Z10	X11	Y11	Z11	X12	Y12	Z12	X13	Y13	Z13	X14	Y14	Z14	X15	Y15	Z15	X16	Y16	Z16	X17	Y17	Z17	X18	Y18	Z18
3081	12.32000	877.18640	1419.10559	28.72549	926.15753	1368.46216	224.65807	945.25720	1325.80640	-148.09006	1006.79089	1289.68640	43.47936	888.53796	1181.08557	312.64883	897.84930	1084.26343	337.23505	828.22839	1055.82727	269.74075	874.22357	954.65649	363.22537	970.73987	884.28613	340.41095	904.61530	856.87750	354.69754	1019.10339	810.01752	364.21661	958.94897	1100.26208	-154.13179	969.83429	1016.51575	-164.07100	943.73309	995.24127	-62.53280	952.20972	869.19348	-128.78859	1019.79742	787.76196	-158.65936	984.05725	773.33777	-97.77174	1017.19879	715.02991	-179.72200
3082	12.32400	877.11011	1419.11975	28.72128	926.07819	1368.45312	224.63939	945.13837	1325.85815	-148.11610	1006.68933	1289.67090	43.44230	888.43823	1181.07544	312.63123	897.74371	1084.26807	337.21985	828.13739	1055.82080	269.71771	874.14667	954.65558	363.19138	970.66895	884.30176	340.37744	904.55792	856.87396	354.65176	1019.04156	810.04193	364.19098	958.57135	1100.28796	-154.21153	969.38110	1016.52576	-164.14177	943.31403	995.27679	-62.60818	952.10980	869.17554	-128.80031	1019.93750	787.95929	-158.62335	984.26550	773.45331	-97.71341	1017.52161	715.25641	-179.67152
3083	12.32800	877.03442	1419.13525	28.71299	926.00842	1368.44128	224.62332	945.01819	1325.91455	-148.14935	1006.59253	1289.65405	43.40697	888.32306	1181.05603	312.59344	897.64587	1084.27283	337.20346	828.04333	1055.81604	269.69296	874.07166	954.65704	363.16180	970.60443	884.31458	340.34097	904.49988	856.87823	354.60983	1018.99066	810.07208	364.15170	958.18396	1100.31750	-154.28909	968.92017	1016.52777	-164.20587	942.84796	995.31567	-62.70537	952.01086	869.16046	-128.80637	1020.08508	788.15509	-158.58607	984.47919	773.56689	-97.65949	1017.86243	715.47711	-179.62483
3084	12.33200	876.95978	1419.14966	28.71644	925.94427	1368.43005	224.60741	944.88934	1325.96863	-148.17480	1006.49048	1289.64270	43.36900	888.22546	1181.05042	312.57187	897.56427	1084.26782	337.18137	827.94318	1055.80994	269.66614	873.99542	954.65399	363.12543	970.54047	884.33002	340.29904	904.43445	856.88190	354.56174	1018.93866	810.09766	364.10486	957.78448	1100.34583	-154.36563	968.46222	1016.53625	-164.26279	942.33691	995.35901	-62.81760	951.90973	869.15289	-128.81400	1020.23541	788.35168	-158.55113	984.70392	773.67694	-97.60526	1018.20685	715.68274	-179.56042
3085	12.33600	876.88245	1419.15881	28.71346	925.88458	1368.40918	224.59280	944.75464	1326.01953	-148.19862	1006.39117	1289.62451	43.33491	888.13867	1181.05371	312.55597	897.48163	1084.25891	337.16101	827.84906	1055.79407	269.63437	873.92206	954.64240	363.08875	970.48199	884.34131	340.25394	904.36444	856.89001	354.50317	1018.89728	810.11334	364.05511	957.39221	1100.36877	-154.44862	967.99524	1016.55066	-164.32149	941.80542	995.39423	-62.92699	951.80853	869.14020	-128.81554	1020.38263	788.55743	-158.51590	984.93311	773.79486	-97.54317	1018.56158	715.88501	-179.47784
3086	12.34000	876.80597	1419.17542	28.70740	925.83051	1368.38538	224.57191	944.61035	1326.07019	-148.22438	1006.28998	1289.61230	43.29473	888.05115	1181.04834	312.54132	897.39667	1084.24341	337.13644	827.76239	1055.78284	269.61685	873.84845	954.62872	363.05103	970.42334	884.34656	340.20377	904.30188	856.88171	354.44400	1018.85071	810.12976	363.99698	957.00201	1100.39148	-154.52382	967.50836	1016.56030	-164.39279	941.27789	995.41382	-63.02287	951.71326	869.12598	-128.80954	1020.53473	788.76880	-158.47614	985.17017	773.92548	-97.47712	1018.92804	716.09894	-179.40378
3087	12.34400	876.73187	1419.18372	28.70059	925.77899	1368.36523	224.54411	944.46326	1326.12476	-148.25612	1006.18646	1289.59656	43.24613	887.96875	1181.03625	312.51688	897.31061	1084.23352	337.11844	827.67651	1055.77026	269.59528	873.77496	954.61700	363.01260	970.36340	884.35028	340.15158	904.24329	856.87506	354.38419	1018.80170	810.13953	363.93198	956.60535	1100.41309	-154.59091	967.02515	1016.58569	-164.45432	940.73193	995.43445	-63.12326	951.61346	869.11475	-128.80762	1020.68903	788.98163	-158.43538	985.41925	774.06927	-97.40377	1019.32025	716.30798	-179.32199
3088	12.34800	876.65796	1419.20044	28.69060	925.73584	1368.34302	224.53415	944.31177	1326.18311	-148.28947	1006.08887	1289.58032	43.20583	887.88770	1181.01697	312.49600	897.23877	1084.21838	337.08932	827.59064	1055.76172	269.56668	873.70471	954.60272	362.97250	970.30554	884.35156	340.09659	904.17981	856.87079	354.32242	1018.75555	810.14807	363.85825	956.20490	1100.43518	-154.66779	966.54077	1016.62256	-164.51320	940.15991	995.43640	-63.20710	951.52197	869.10309	-128.79172	1020.85254	789.21381	-158.39305	985.67413	774.22662	-97.33878	1019.71576	716.55182	-179.25009
